<?xml version="1.0" encoding="utf-8"?>
<svg xmlns="http://www.w3.org/2000/svg" style="margin: auto; display: block; shape-rendering: auto; background: none;" width="267" height="59" preserveAspectRatio="xMidYMid">
<style type="text/css">
  text {
    text-anchor: middle; font-size: 34px; opacity: 0;
  }
</style>
<g style="transform-origin: 133.5px 29.5px; transform: scale(1.47826);">
<g transform="translate(133.5,29.5)">
  <g transform="translate(0,0)"><g class="path" style="transform: matrix(1, 0, 0, 1, 0, 0); opacity: 0.05; transform-origin: -78.47px -2.19546px; animation: 1.42857s linear 0s 1 normal forwards running float-btt-in-459d859f-166b-4130-a7c1-7ba5b76b712e;"><path d="M9.06-3.16L9.06-3.16L9.06-3.16Q9.06-2.46 8.80-1.84L8.80-1.84L8.80-1.84Q8.54-1.22 8.07-0.76L8.07-0.76L8.07-0.76Q7.61-0.30 7.00-0.04L7.00-0.04L7.00-0.04Q6.38 0.22 5.68 0.22L5.68 0.22L4.76 0.22L4.76 0.22Q4.07 0.22 3.45-0.04L3.45-0.04L3.45-0.04Q2.83-0.30 2.37-0.76L2.37-0.76L2.37-0.76Q1.91-1.22 1.65-1.84L1.65-1.84L1.65-1.84Q1.38-2.46 1.38-3.16L1.38-3.16L1.38-16.10L2.76-16.10L2.76-10.53L2.76-10.53Q3.23-11.10 3.90-11.41L3.90-11.41L3.90-11.41Q4.56-11.72 5.33-11.72L5.33-11.72L5.68-11.72L5.68-11.72Q6.38-11.72 7.00-11.46L7.00-11.46L7.00-11.46Q7.61-11.20 8.07-10.74L8.07-10.74L8.07-10.74Q8.54-10.28 8.80-9.66L8.80-9.66L8.80-9.66Q9.06-9.04 9.06-8.34L9.06-8.34L9.06-3.16zM7.68-3.08L7.68-8.42L7.68-8.42Q7.68-8.84 7.52-9.20L7.52-9.20L7.52-9.20Q7.37-9.57 7.10-9.84L7.10-9.84L7.10-9.84Q6.83-10.11 6.46-10.26L6.46-10.26L6.46-10.26Q6.10-10.42 5.68-10.42L5.68-10.42L4.76-10.42L4.76-10.42Q4.35-10.42 3.98-10.26L3.98-10.26L3.98-10.26Q3.62-10.11 3.35-9.84L3.35-9.84L3.35-9.84Q3.08-9.57 2.92-9.20L2.92-9.20L2.92-9.20Q2.76-8.84 2.76-8.42L2.76-8.42L2.76-3.08L2.76-3.08Q2.76-2.66 2.92-2.30L2.92-2.30L2.92-2.30Q3.08-1.93 3.35-1.66L3.35-1.66L3.35-1.66Q3.62-1.39 3.98-1.24L3.98-1.24L3.98-1.24Q4.35-1.08 4.76-1.08L4.76-1.08L5.68-1.08L5.68-1.08Q6.10-1.08 6.46-1.24L6.46-1.24L6.46-1.24Q6.83-1.39 7.10-1.66L7.10-1.66L7.10-1.66Q7.37-1.93 7.52-2.30L7.52-2.30L7.52-2.30Q7.68-2.66 7.68-3.08L7.68-3.08" fill="#f4c51e" stroke="none" stroke-width="none" transform="translate(-83.69000244140625,5.744539625379772)" style="fill: rgb(244, 197, 30);"></path></g><g class="path" style="transform: matrix(1, 0, 0, 1, 0, 0); opacity: 0.05; transform-origin: -70.715px -9.43546px; animation: 1.42857s linear 0.0793651s 1 normal forwards running float-btt-in-459d859f-166b-4130-a7c1-7ba5b76b712e;"><path d="M13.78-14.26L12.17-14.26L12.17-16.10L13.78-16.10L13.78-14.26" fill="#f4c51e" stroke="none" stroke-width="none" transform="translate(-83.69000244140625,5.744539625379772)" style="fill: rgb(244, 197, 30);"></path></g><g class="path" style="transform: matrix(1, 0, 0, 1, 0, 0); opacity: 0.05; transform-origin: -70.71px -0.00546026px; animation: 1.42857s linear 0.15873s 1 normal forwards running float-btt-in-459d859f-166b-4130-a7c1-7ba5b76b712e;"><path d="M13.67 0L12.29 0L12.29-11.50L13.67-11.50L13.67 0" fill="#f4c51e" stroke="none" stroke-width="none" transform="translate(-83.69000244140625,5.744539625379772)" style="fill: rgb(244, 197, 30);"></path></g><g class="path" style="transform: matrix(1, 0, 0, 1, 0, 0); opacity: 0.05; transform-origin: -62.96px -0.11546px; animation: 1.42857s linear 0.238095s 1 normal forwards running float-btt-in-459d859f-166b-4130-a7c1-7ba5b76b712e;"><path d="M24.57 0L23.19 0L23.19-8.42L23.19-8.42Q23.19-8.84 23.03-9.20L23.03-9.20L23.03-9.20Q22.88-9.57 22.61-9.84L22.61-9.84L22.61-9.84Q22.34-10.11 21.97-10.26L21.97-10.26L21.97-10.26Q21.61-10.42 21.19-10.42L21.19-10.42L20.27-10.42L20.27-10.42Q19.86-10.42 19.49-10.26L19.49-10.26L19.49-10.26Q19.13-10.11 18.86-9.84L18.86-9.84L18.86-9.84Q18.59-9.57 18.43-9.20L18.43-9.20L18.43-9.20Q18.27-8.84 18.27-8.42L18.27-8.42L18.27 0L16.89 0L16.89-11.50L17.35-11.50L18.10-10.33L18.10-10.33Q18.58-10.97 19.29-11.35L19.29-11.35L19.29-11.35Q20.00-11.72 20.84-11.72L20.84-11.72L21.19-11.72L21.19-11.72Q21.89-11.72 22.51-11.46L22.51-11.46L22.51-11.46Q23.12-11.20 23.58-10.74L23.58-10.74L23.58-10.74Q24.04-10.28 24.31-9.66L24.31-9.66L24.31-9.66Q24.57-9.04 24.57-8.34L24.57-8.34L24.57 0" fill="#f4c51e" stroke="none" stroke-width="none" transform="translate(-83.69000244140625,5.744539625379772)" style="fill: rgb(244, 197, 30);"></path></g><g class="path" style="transform: matrix(1, 0, 0, 1, 0, 0); opacity: 0.05; transform-origin: -52.515px -0.00546026px; animation: 1.42857s linear 0.31746s 1 normal forwards running float-btt-in-459d859f-166b-4130-a7c1-7ba5b76b712e;"><path d="M35.02 0L34.56 0L33.79-1.15L33.79-1.15Q33.32-0.53 32.61-0.15L32.61-0.15L32.61-0.15Q31.91 0.22 31.06 0.22L31.06 0.22L30.72 0.22L30.72 0.22Q30.02 0.22 29.40-0.04L29.40-0.04L29.40-0.04Q28.78-0.30 28.32-0.76L28.32-0.76L28.32-0.76Q27.86-1.22 27.60-1.84L27.60-1.84L27.60-1.84Q27.33-2.46 27.33-3.16L27.33-3.16L27.33-3.27L27.33-3.27Q27.33-3.96 27.60-4.58L27.60-4.58L27.60-4.58Q27.86-5.20 28.32-5.66L28.32-5.66L28.32-5.66Q28.78-6.12 29.40-6.38L29.40-6.38L29.40-6.38Q30.02-6.65 30.72-6.65L30.72-6.65L33.64-6.65L33.64-8.42L33.64-8.42Q33.64-8.84 33.48-9.20L33.48-9.20L33.48-9.20Q33.32-9.57 33.05-9.84L33.05-9.84L33.05-9.84Q32.78-10.11 32.42-10.26L32.42-10.26L32.42-10.26Q32.05-10.42 31.64-10.42L31.64-10.42L30.83-10.42L30.83-10.42Q30.41-10.42 30.05-10.26L30.05-10.26L30.05-10.26Q29.68-10.11 29.41-9.84L29.41-9.84L29.41-9.84Q29.14-9.57 28.99-9.20L28.99-9.20L28.99-9.20Q28.83-8.84 28.83-8.42L28.83-8.42L28.83-8.01L27.45-8.23L27.45-8.34L27.45-8.34Q27.45-9.04 27.71-9.66L27.71-9.66L27.71-9.66Q27.98-10.28 28.44-10.74L28.44-10.74L28.44-10.74Q28.90-11.20 29.51-11.46L29.51-11.46L29.51-11.46Q30.13-11.72 30.83-11.72L30.83-11.72L31.64-11.72L31.64-11.72Q32.33-11.72 32.95-11.46L32.95-11.46L32.95-11.46Q33.57-11.20 34.03-10.74L34.03-10.74L34.03-10.74Q34.49-10.28 34.75-9.66L34.75-9.66L34.75-9.66Q35.02-9.04 35.02-8.34L35.02-8.34L35.02 0zM33.64-3.08L33.64-5.57L30.72-5.57L30.72-5.57Q30.30-5.57 29.93-5.41L29.93-5.41L29.93-5.41Q29.57-5.26 29.30-4.98L29.30-4.98L29.30-4.98Q29.03-4.71 28.87-4.34L28.87-4.34L28.87-4.34Q28.72-3.98 28.72-3.56L28.72-3.56L28.72-3.08L28.72-3.08Q28.72-2.66 28.87-2.30L28.87-2.30L28.87-2.30Q29.03-1.93 29.30-1.66L29.30-1.66L29.30-1.66Q29.57-1.39 29.93-1.24L29.93-1.24L29.93-1.24Q30.30-1.08 30.72-1.08L30.72-1.08L31.64-1.08L31.64-1.08Q32.05-1.08 32.42-1.24L32.42-1.24L32.42-1.24Q32.78-1.39 33.05-1.66L33.05-1.66L33.05-1.66Q33.32-1.93 33.48-2.30L33.48-2.30L33.48-2.30Q33.64-2.66 33.64-3.08L33.64-3.08" fill="#f4c51e" stroke="none" stroke-width="none" transform="translate(-83.69000244140625,5.744539625379772)" style="fill: rgb(244, 197, 30);"></path></g><g class="path" style="transform: matrix(1, 0, 0, 1, 0, 0); opacity: 0.05; transform-origin: -42.07px -0.11546px; animation: 1.42857s linear 0.396825s 1 normal forwards running float-btt-in-459d859f-166b-4130-a7c1-7ba5b76b712e;"><path d="M45.46 0L44.08 0L44.08-8.42L44.08-8.42Q44.08-8.84 43.92-9.20L43.92-9.20L43.92-9.20Q43.77-9.57 43.50-9.84L43.50-9.84L43.50-9.84Q43.23-10.11 42.86-10.26L42.86-10.26L42.86-10.26Q42.50-10.42 42.08-10.42L42.08-10.42L41.16-10.42L41.16-10.42Q40.74-10.42 40.38-10.26L40.38-10.26L40.38-10.26Q40.01-10.11 39.74-9.84L39.74-9.84L39.74-9.84Q39.48-9.57 39.32-9.20L39.32-9.20L39.32-9.20Q39.16-8.84 39.16-8.42L39.16-8.42L39.16 0L37.78 0L37.78-11.50L38.24-11.50L38.99-10.33L38.99-10.33Q39.46-10.97 40.18-11.35L40.18-11.35L40.18-11.35Q40.89-11.72 41.73-11.72L41.73-11.72L42.08-11.72L42.08-11.72Q42.78-11.72 43.39-11.46L43.39-11.46L43.39-11.46Q44.01-11.20 44.47-10.74L44.47-10.74L44.47-10.74Q44.93-10.28 45.20-9.66L45.20-9.66L45.20-9.66Q45.46-9.04 45.46-8.34L45.46-8.34L45.46 0" fill="#f4c51e" stroke="none" stroke-width="none" transform="translate(-83.69000244140625,5.744539625379772)" style="fill: rgb(244, 197, 30);"></path></g><g class="path" style="transform: matrix(1, 0, 0, 1, 0, 0); opacity: 0.05; transform-origin: -31.625px -0.00546026px; animation: 1.42857s linear 0.47619s 1 normal forwards running float-btt-in-459d859f-166b-4130-a7c1-7ba5b76b712e;"><path d="M55.91-3.16L55.91-3.16L55.91-3.16Q55.91-2.46 55.64-1.84L55.64-1.84L55.64-1.84Q55.38-1.22 54.92-0.76L54.92-0.76L54.92-0.76Q54.46-0.30 53.84-0.04L53.84-0.04L53.84-0.04Q53.22 0.22 52.52 0.22L52.52 0.22L51.60 0.22L51.60 0.22Q50.91 0.22 50.29-0.04L50.29-0.04L50.29-0.04Q49.67-0.30 49.21-0.76L49.21-0.76L49.21-0.76Q48.75-1.22 48.49-1.84L48.49-1.84L48.49-1.84Q48.22-2.46 48.22-3.16L48.22-3.16L48.22-8.34L48.22-8.34Q48.22-9.04 48.49-9.66L48.49-9.66L48.49-9.66Q48.75-10.28 49.21-10.74L49.21-10.74L49.21-10.74Q49.67-11.20 50.29-11.46L50.29-11.46L50.29-11.46Q50.91-11.72 51.60-11.72L51.60-11.72L52.52-11.72L52.52-11.72Q53.22-11.72 53.84-11.46L53.84-11.46L53.84-11.46Q54.46-11.20 54.92-10.74L54.92-10.74L54.92-10.74Q55.38-10.28 55.64-9.66L55.64-9.66L55.64-9.66Q55.91-9.04 55.91-8.34L55.91-8.34L55.91-7.88L54.52-7.66L54.52-8.42L54.52-8.42Q54.52-8.84 54.37-9.20L54.37-9.20L54.37-9.20Q54.21-9.57 53.94-9.84L53.94-9.84L53.94-9.84Q53.67-10.11 53.31-10.26L53.31-10.26L53.31-10.26Q52.94-10.42 52.52-10.42L52.52-10.42L51.60-10.42L51.60-10.42Q51.19-10.42 50.82-10.26L50.82-10.26L50.82-10.26Q50.46-10.11 50.19-9.84L50.19-9.84L50.19-9.84Q49.92-9.57 49.76-9.20L49.76-9.20L49.76-9.20Q49.60-8.84 49.60-8.42L49.60-8.42L49.60-3.08L49.60-3.08Q49.60-2.66 49.76-2.30L49.76-2.30L49.76-2.30Q49.92-1.93 50.19-1.66L50.19-1.66L50.19-1.66Q50.46-1.39 50.82-1.24L50.82-1.24L50.82-1.24Q51.19-1.08 51.60-1.08L51.60-1.08L52.52-1.08L52.52-1.08Q52.94-1.08 53.31-1.24L53.31-1.24L53.31-1.24Q53.67-1.39 53.94-1.66L53.94-1.66L53.94-1.66Q54.21-1.93 54.37-2.30L54.37-2.30L54.37-2.30Q54.52-2.66 54.52-3.08L54.52-3.08L54.52-3.84L55.91-3.62L55.91-3.16" fill="#f4c51e" stroke="none" stroke-width="none" transform="translate(-83.69000244140625,5.744539625379772)" style="fill: rgb(244, 197, 30);"></path></g><g class="path" style="transform: matrix(1, 0, 0, 1, 0, 0); opacity: 0.05; transform-origin: -21.18px -0.00546026px; animation: 1.42857s linear 0.555556s 1 normal forwards running float-btt-in-459d859f-166b-4130-a7c1-7ba5b76b712e;"><path d="M66.35-3.16L66.35-3.16L66.35-3.16Q66.35-2.46 66.09-1.84L66.09-1.84L66.09-1.84Q65.82-1.22 65.36-0.76L65.36-0.76L65.36-0.76Q64.90-0.30 64.28-0.04L64.28-0.04L64.28-0.04Q63.67 0.22 62.97 0.22L62.97 0.22L62.05 0.22L62.05 0.22Q61.35 0.22 60.73-0.04L60.73-0.04L60.73-0.04Q60.12-0.30 59.66-0.76L59.66-0.76L59.66-0.76Q59.20-1.22 58.93-1.84L58.93-1.84L58.93-1.84Q58.67-2.46 58.67-3.16L58.67-3.16L58.67-8.34L58.67-8.34Q58.67-9.04 58.93-9.66L58.93-9.66L58.93-9.66Q59.20-10.28 59.66-10.74L59.66-10.74L59.66-10.74Q60.12-11.20 60.73-11.46L60.73-11.46L60.73-11.46Q61.35-11.72 62.05-11.72L62.05-11.72L62.97-11.72L62.97-11.72Q63.67-11.72 64.28-11.46L64.28-11.46L64.28-11.46Q64.90-11.20 65.36-10.74L65.36-10.74L65.36-10.74Q65.82-10.28 66.09-9.66L66.09-9.66L66.09-9.66Q66.35-9.04 66.35-8.34L66.35-8.34L66.35-5.64L60.05-5.64L60.05-3.08L60.05-3.08Q60.05-2.66 60.21-2.30L60.21-2.30L60.21-2.30Q60.36-1.93 60.63-1.66L60.63-1.66L60.63-1.66Q60.90-1.39 61.27-1.24L61.27-1.24L61.27-1.24Q61.63-1.08 62.05-1.08L62.05-1.08L62.97-1.08L62.97-1.08Q63.38-1.08 63.75-1.24L63.75-1.24L63.75-1.24Q64.11-1.39 64.38-1.66L64.38-1.66L64.38-1.66Q64.65-1.93 64.81-2.30L64.81-2.30L64.81-2.30Q64.97-2.66 64.97-3.08L64.97-3.08L64.97-3.84L66.35-3.62L66.35-3.16zM64.97-6.72L64.97-8.42L64.97-8.42Q64.97-8.84 64.81-9.20L64.81-9.20L64.81-9.20Q64.65-9.57 64.38-9.84L64.38-9.84L64.38-9.84Q64.11-10.11 63.75-10.26L63.75-10.26L63.75-10.26Q63.38-10.42 62.97-10.42L62.97-10.42L62.05-10.42L62.05-10.42Q61.63-10.42 61.27-10.26L61.27-10.26L61.27-10.26Q60.90-10.11 60.63-9.84L60.63-9.84L60.63-9.84Q60.36-9.57 60.21-9.20L60.21-9.20L60.21-9.20Q60.05-8.84 60.05-8.42L60.05-8.42L60.05-6.72L64.97-6.72" fill="#f4c51e" stroke="none" stroke-width="none" transform="translate(-83.69000244140625,5.744539625379772)" style="fill: rgb(244, 197, 30);"></path></g><g class="path" style="transform: matrix(1, 0, 0, 1, 0, 0); opacity: 0.05; transform-origin: -13.485px -4.89046px; animation: 1.42857s linear 0.634921s 1 normal forwards running float-btt-in-459d859f-166b-4130-a7c1-7ba5b76b712e;"><path d="M71.07-9.77L69.34-9.77L69.34-11.50L71.07-11.50L71.07-9.77" fill="#f4c51e" stroke="none" stroke-width="none" transform="translate(-83.69000244140625,5.744539625379772)" style="fill: rgb(244, 197, 30);"></path></g><g class="path" style="transform: matrix(1, 0, 0, 1, 0, 0); opacity: 0.05; transform-origin: -13.485px 4.87954px; animation: 1.42857s linear 0.714286s 1 normal forwards running float-btt-in-459d859f-166b-4130-a7c1-7ba5b76b712e;"><path d="M71.07 0L69.34 0L69.34-1.73L71.07-1.73L71.07 0" fill="#f4c51e" stroke="none" stroke-width="none" transform="translate(-83.69000244140625,5.744539625379772)" style="fill: rgb(244, 197, 30);"></path></g><g class="path" style="transform: matrix(1, 0, 0, 1, 0, 0); opacity: 0.05; transform-origin: -0.855003px -2.19546px; animation: 1.42857s linear 0.793651s 1 normal forwards running float-btt-in-459d859f-166b-4130-a7c1-7ba5b76b712e;"><path d="M87.02-3.73L87.02-3.73L87.02-3.73Q87.02-2.91 86.72-2.19L86.72-2.19L86.72-2.19Q86.41-1.47 85.87-0.93L85.87-0.93L85.87-0.93Q85.33-0.39 84.61-0.08L84.61-0.08L84.61-0.08Q83.89 0.22 83.07 0.22L83.07 0.22L82.61 0.22L82.61 0.22Q81.79 0.22 81.07-0.08L81.07-0.08L81.07-0.08Q80.34-0.39 79.80-0.93L79.80-0.93L79.80-0.93Q79.26-1.47 78.96-2.19L78.96-2.19L78.96-2.19Q78.65-2.91 78.65-3.73L78.65-3.73L78.65-4.37L80.10-4.60L80.10-3.73L80.10-3.73Q80.10-3.19 80.30-2.72L80.30-2.72L80.30-2.72Q80.50-2.26 80.85-1.90L80.85-1.90L80.85-1.90Q81.21-1.55 81.67-1.35L81.67-1.35L81.67-1.35Q82.14-1.15 82.68-1.15L82.68-1.15L83.00-1.15L83.00-1.15Q83.53-1.15 84.00-1.35L84.00-1.35L84.00-1.35Q84.48-1.55 84.82-1.90L84.82-1.90L84.82-1.90Q85.17-2.26 85.37-2.72L85.37-2.72L85.37-2.72Q85.58-3.19 85.58-3.73L85.58-3.73L85.58-16.10L87.02-16.10L87.02-3.73" fill="#f4c51e" stroke="none" stroke-width="none" transform="translate(-83.69000244140625,5.744539625379772)" style="fill: rgb(244, 197, 30);"></path></g><g class="path" style="transform: matrix(1, 0, 0, 1, 0, 0); opacity: 0.05; transform-origin: 10.86px -2.31046px; animation: 1.42857s linear 0.873016s 1 normal forwards running float-btt-in-459d859f-166b-4130-a7c1-7ba5b76b712e;"><path d="M98.85-3.73L98.85-3.73L98.85-3.73Q98.85-2.91 98.54-2.19L98.54-2.19L98.54-2.19Q98.23-1.47 97.69-0.93L97.69-0.93L97.69-0.93Q97.15-0.39 96.44-0.08L96.44-0.08L96.44-0.08Q95.72 0.22 94.90 0.22L94.90 0.22L94.20 0.22L94.20 0.22Q93.38 0.22 92.66-0.08L92.66-0.08L92.66-0.08Q91.94-0.39 91.40-0.93L91.40-0.93L91.40-0.93Q90.87-1.47 90.56-2.19L90.56-2.19L90.56-2.19Q90.25-2.91 90.25-3.73L90.25-3.73L90.25-4.14L91.70-4.37L91.70-3.73L91.70-3.73Q91.70-3.19 91.90-2.72L91.90-2.72L91.90-2.72Q92.10-2.26 92.45-1.90L92.45-1.90L92.45-1.90Q92.80-1.55 93.26-1.35L93.26-1.35L93.26-1.35Q93.73-1.15 94.27-1.15L94.27-1.15L94.82-1.15L94.82-1.15Q95.36-1.15 95.82-1.35L95.82-1.35L95.82-1.35Q96.29-1.55 96.64-1.90L96.64-1.90L96.64-1.90Q97.00-2.26 97.20-2.72L97.20-2.72L97.20-2.72Q97.40-3.19 97.40-3.73L97.40-3.73L97.40-7.73L97.40-7.73Q96.84-7.12 96.08-6.76L96.08-6.76L96.08-6.76Q95.31-6.39 94.44-6.39L94.44-6.39L94.20-6.39L94.20-6.39Q93.38-6.39 92.66-6.70L92.66-6.70L92.66-6.70Q91.94-7.01 91.40-7.55L91.40-7.55L91.40-7.55Q90.87-8.09 90.56-8.81L90.56-8.81L90.56-8.81Q90.25-9.53 90.25-10.35L90.25-10.35L90.25-12.38L90.25-12.38Q90.25-13.20 90.56-13.91L90.56-13.91L90.56-13.91Q90.87-14.63 91.40-15.17L91.40-15.17L91.40-15.17Q91.94-15.71 92.66-16.02L92.66-16.02L92.66-16.02Q93.38-16.33 94.20-16.33L94.20-16.33L94.90-16.33L94.90-16.33Q95.72-16.33 96.44-16.02L96.44-16.02L96.44-16.02Q97.15-15.71 97.69-15.17L97.69-15.17L97.69-15.17Q98.23-14.63 98.54-13.91L98.54-13.91L98.54-13.91Q98.85-13.20 98.85-12.38L98.85-12.38L98.85-3.73zM97.40-10.35L97.40-12.38L97.40-12.38Q97.40-12.92 97.20-13.38L97.20-13.38L97.20-13.38Q97.00-13.85 96.64-14.20L96.64-14.20L96.64-14.20Q96.29-14.54 95.82-14.75L95.82-14.75L95.82-14.75Q95.36-14.95 94.82-14.95L94.82-14.95L94.27-14.95L94.27-14.95Q93.73-14.95 93.26-14.75L93.26-14.75L93.26-14.75Q92.80-14.54 92.45-14.20L92.45-14.20L92.45-14.20Q92.10-13.85 91.90-13.38L91.90-13.38L91.90-13.38Q91.70-12.92 91.70-12.38L91.70-12.38L91.70-10.35L91.70-10.35Q91.70-9.82 91.90-9.35L91.90-9.35L91.90-9.35Q92.10-8.88 92.45-8.53L92.45-8.53L92.45-8.53Q92.80-8.18 93.26-7.97L93.26-7.97L93.26-7.97Q93.73-7.77 94.27-7.77L94.27-7.77L94.82-7.77L94.82-7.77Q95.36-7.77 95.82-7.97L95.82-7.97L95.82-7.97Q96.29-8.18 96.64-8.53L96.64-8.53L96.64-8.53Q97.00-8.88 97.20-9.35L97.20-9.35L97.20-9.35Q97.40-9.82 97.40-10.35L97.40-10.35" fill="#f4c51e" stroke="none" stroke-width="none" transform="translate(-83.69000244140625,5.744539625379772)" style="fill: rgb(244, 197, 30);"></path></g><g class="path" style="transform: matrix(1, 0, 0, 1, 0, 0); opacity: 0.05; transform-origin: 22.68px -2.31046px; animation: 1.42857s linear 0.952381s 1 normal forwards running float-btt-in-459d859f-166b-4130-a7c1-7ba5b76b712e;"><path d="M110.90-3.73L110.90-3.73L110.90-3.73Q110.90-2.91 110.59-2.19L110.59-2.19L110.59-2.19Q110.28-1.47 109.74-0.93L109.74-0.93L109.74-0.93Q109.21-0.39 108.49-0.08L108.49-0.08L108.49-0.08Q107.77 0.22 106.95 0.22L106.95 0.22L105.80 0.22L105.80 0.22Q104.98 0.22 104.26-0.08L104.26-0.08L104.26-0.08Q103.53-0.39 102.99-0.93L102.99-0.93L102.99-0.93Q102.46-1.47 102.15-2.19L102.15-2.19L102.15-2.19Q101.84-2.91 101.84-3.73L101.84-3.73L101.84-12.38L101.84-12.38Q101.84-13.20 102.15-13.91L102.15-13.91L102.15-13.91Q102.46-14.63 102.99-15.17L102.99-15.17L102.99-15.17Q103.53-15.71 104.26-16.02L104.26-16.02L104.26-16.02Q104.98-16.33 105.80-16.33L105.80-16.33L106.95-16.33L106.95-16.33Q107.77-16.33 108.49-16.02L108.49-16.02L108.49-16.02Q109.21-15.71 109.74-15.17L109.74-15.17L109.74-15.17Q110.28-14.63 110.59-13.91L110.59-13.91L110.59-13.91Q110.90-13.20 110.90-12.38L110.90-12.38L110.90-11.72L109.45-11.50L109.45-12.38L109.45-12.38Q109.45-12.92 109.25-13.38L109.25-13.38L109.25-13.38Q109.05-13.85 108.70-14.20L108.70-14.20L108.70-14.20Q108.35-14.54 107.89-14.75L107.89-14.75L107.89-14.75Q107.42-14.95 106.88-14.95L106.88-14.95L105.87-14.95L105.87-14.95Q105.33-14.95 104.86-14.75L104.86-14.75L104.86-14.75Q104.40-14.54 104.04-14.20L104.04-14.20L104.04-14.20Q103.69-13.85 103.49-13.38L103.49-13.38L103.49-13.38Q103.29-12.92 103.29-12.38L103.29-12.38L103.29-3.73L103.29-3.73Q103.29-3.19 103.49-2.72L103.49-2.72L103.49-2.72Q103.69-2.26 104.04-1.90L104.04-1.90L104.04-1.90Q104.40-1.55 104.86-1.35L104.86-1.35L104.86-1.35Q105.33-1.15 105.87-1.15L105.87-1.15L106.88-1.15L106.88-1.15Q107.42-1.15 107.89-1.35L107.89-1.35L107.89-1.35Q108.35-1.55 108.70-1.90L108.70-1.90L108.70-1.90Q109.05-2.26 109.25-2.72L109.25-2.72L109.25-2.72Q109.45-3.19 109.45-3.73L109.45-3.73L109.45-4.60L110.90-4.37L110.90-3.73" fill="#f4c51e" stroke="none" stroke-width="none" transform="translate(-83.69000244140625,5.744539625379772)" style="fill: rgb(244, 197, 30);"></path></g><g class="path" style="transform: matrix(1, 0, 0, 1, 0, 0); opacity: 0.05; transform-origin: 34.615px -2.31046px; animation: 1.42857s linear 1.03175s 1 normal forwards running float-btt-in-459d859f-166b-4130-a7c1-7ba5b76b712e;"><path d="M122.95-4.21L122.95-3.73L122.95-3.73Q122.95-2.91 122.62-2.19L122.62-2.19L122.62-2.19Q122.29-1.47 121.73-0.93L121.73-0.93L121.73-0.93Q121.18-0.39 120.44-0.08L120.44-0.08L120.44-0.08Q119.71 0.22 118.89 0.22L118.89 0.22L117.73 0.22L117.73 0.22Q116.91 0.22 116.17-0.08L116.17-0.08L116.17-0.08Q115.44-0.39 114.88-0.93L114.88-0.93L114.88-0.93Q114.33-1.47 113.99-2.19L113.99-2.19L113.99-2.19Q113.66-2.91 113.66-3.73L113.66-3.73L113.66-4.37L115.11-4.60L115.11-3.73L115.11-3.73Q115.11-3.19 115.33-2.72L115.33-2.72L115.33-2.72Q115.55-2.26 115.92-1.90L115.92-1.90L115.92-1.90Q116.29-1.55 116.78-1.35L116.78-1.35L116.78-1.35Q117.27-1.15 117.81-1.15L117.81-1.15L118.82-1.15L118.82-1.15Q119.36-1.15 119.84-1.35L119.84-1.35L119.84-1.35Q120.32-1.55 120.69-1.90L120.69-1.90L120.69-1.90Q121.06-2.26 121.28-2.72L121.28-2.72L121.28-2.72Q121.50-3.19 121.50-3.73L121.50-3.73L121.50-4.21L121.50-4.21Q121.50-5.04 121.18-5.59L121.18-5.59L121.18-5.59Q120.85-6.14 120.31-6.53L120.31-6.53L120.31-6.53Q119.77-6.92 119.09-7.19L119.09-7.19L119.09-7.19Q118.41-7.46 117.70-7.73L117.70-7.73L117.70-7.73Q116.98-8.00 116.30-8.32L116.30-8.32L116.30-8.32Q115.62-8.65 115.08-9.14L115.08-9.14L115.08-9.14Q114.54-9.62 114.21-10.33L114.21-10.33L114.21-10.33Q113.89-11.04 113.89-12.07L113.89-12.07L113.89-12.38L113.89-12.38Q113.89-13.20 114.20-13.91L114.20-13.91L114.20-13.91Q114.51-14.63 115.04-15.17L115.04-15.17L115.04-15.17Q115.58-15.71 116.31-16.02L116.31-16.02L116.31-16.02Q117.03-16.33 117.85-16.33L117.85-16.33L118.89-16.33L118.89-16.33Q119.71-16.33 120.42-16.02L120.42-16.02L120.42-16.02Q121.14-15.71 121.68-15.17L121.68-15.17L121.68-15.17Q122.22-14.63 122.53-13.91L122.53-13.91L122.53-13.91Q122.84-13.20 122.84-12.38L122.84-12.38L122.84-11.96L121.39-11.72L121.39-12.38L121.39-12.38Q121.39-12.92 121.19-13.38L121.19-13.38L121.19-13.38Q120.99-13.85 120.64-14.20L120.64-14.20L120.64-14.20Q120.29-14.54 119.82-14.75L119.82-14.75L119.82-14.75Q119.36-14.95 118.82-14.95L118.82-14.95L117.92-14.95L117.92-14.95Q117.38-14.95 116.91-14.75L116.91-14.75L116.91-14.75Q116.45-14.54 116.09-14.20L116.09-14.20L116.09-14.20Q115.74-13.85 115.54-13.38L115.54-13.38L115.54-13.38Q115.34-12.92 115.34-12.38L115.34-12.38L115.34-12.07L115.34-12.07Q115.34-11.30 115.66-10.77L115.66-10.77L115.66-10.77Q115.99-10.24 116.53-9.87L116.53-9.87L116.53-9.87Q117.07-9.49 117.75-9.21L117.75-9.21L117.75-9.21Q118.43-8.94 119.14-8.65L119.14-8.65L119.14-8.65Q119.86-8.37 120.54-8.02L120.54-8.02L120.54-8.02Q121.22-7.68 121.76-7.18L121.76-7.18L121.76-7.18Q122.30-6.68 122.63-5.96L122.63-5.96L122.63-5.96Q122.95-5.24 122.95-4.21L122.95-4.21" fill="#f4c51e" stroke="none" stroke-width="none" transform="translate(-83.69000244140625,5.744539625379772)" style="fill: rgb(244, 197, 30);"></path></g><g class="path" style="transform: matrix(1, 0, 0, 1, 0, 0); opacity: 0.05; transform-origin: 45.98px -2.42046px; animation: 1.42857s linear 1.11111s 1 normal forwards running float-btt-in-459d859f-166b-4130-a7c1-7ba5b76b712e;"><path d="M130.06-14.95L129.51-14.95L129.51-14.95Q128.97-14.95 128.50-14.75L128.50-14.75L128.50-14.75Q128.04-14.54 127.69-14.20L127.69-14.20L127.69-14.20Q127.34-13.85 127.14-13.38L127.14-13.38L127.14-13.38Q126.94-12.92 126.94-12.38L126.94-12.38L126.94-11.72L125.49-11.96L125.49-12.38L125.49-12.38Q125.49-13.20 125.80-13.91L125.80-13.91L125.80-13.91Q126.11-14.63 126.65-15.17L126.65-15.17L126.65-15.17Q127.19-15.71 127.90-16.02L127.90-16.02L127.90-16.02Q128.62-16.33 129.44-16.33L129.44-16.33L130.13-16.33L130.13-16.33Q130.95-16.33 131.67-16.04L131.67-16.04L131.67-16.04Q132.40-15.75 132.94-15.19L132.94-15.19L132.94-15.19Q133.47-14.64 133.78-13.88L133.78-13.88L133.78-13.88Q134.09-13.11 134.09-12.14L134.09-12.14L134.09-12.14Q134.09-11.19 133.81-10.22L133.81-10.22L133.81-10.22Q133.52-9.25 133.05-8.32L133.05-8.32L133.05-8.32Q132.59-7.39 131.99-6.51L131.99-6.51L131.99-6.51Q131.39-5.64 130.76-4.86L130.76-4.86L130.76-4.86Q129.29-3.05 127.42-1.38L127.42-1.38L134.20-1.38L134.20 0L125.14 0L125.14-1.15L125.14-1.15Q127.24-2.88 128.89-4.73L128.89-4.73L128.89-4.73Q129.60-5.53 130.27-6.42L130.27-6.42L130.27-6.42Q130.95-7.32 131.48-8.27L131.48-8.27L131.48-8.27Q132.00-9.22 132.32-10.20L132.32-10.20L132.32-10.20Q132.64-11.19 132.64-12.14L132.64-12.14L132.64-12.14Q132.64-12.85 132.43-13.38L132.43-13.38L132.43-13.38Q132.22-13.90 131.86-14.25L131.86-14.25L131.86-14.25Q131.50-14.60 131.03-14.77L131.03-14.77L131.03-14.77Q130.57-14.95 130.06-14.95L130.06-14.95" fill="#f4c51e" stroke="none" stroke-width="none" transform="translate(-83.69000244140625,5.744539625379772)" style="fill: rgb(244, 197, 30);"></path></g><g class="path" style="transform: matrix(1, 0, 0, 1, 0, 0); opacity: 0.05; transform-origin: 58.03px -2.31046px; animation: 1.42857s linear 1.19048s 1 normal forwards running float-btt-in-459d859f-166b-4130-a7c1-7ba5b76b712e;"><path d="M146.25-3.73L146.25-3.73L146.25-3.73Q146.25-2.91 145.95-2.19L145.95-2.19L145.95-2.19Q145.64-1.47 145.10-0.93L145.10-0.93L145.10-0.93Q144.56-0.39 143.84-0.08L143.84-0.08L143.84-0.08Q143.12 0.22 142.30 0.22L142.30 0.22L141.16 0.22L141.16 0.22Q140.34 0.22 139.61-0.08L139.61-0.08L139.61-0.08Q138.89-0.39 138.35-0.93L138.35-0.93L138.35-0.93Q137.81-1.47 137.50-2.19L137.50-2.19L137.50-2.19Q137.19-2.91 137.19-3.73L137.19-3.73L137.19-12.38L137.19-12.38Q137.19-13.20 137.50-13.91L137.50-13.91L137.50-13.91Q137.81-14.63 138.35-15.17L138.35-15.17L138.35-15.17Q138.89-15.71 139.61-16.02L139.61-16.02L139.61-16.02Q140.34-16.33 141.16-16.33L141.16-16.33L142.30-16.33L142.30-16.33Q143.12-16.33 143.84-16.02L143.84-16.02L143.84-16.02Q144.56-15.71 145.10-15.17L145.10-15.17L145.10-15.17Q145.64-14.63 145.95-13.91L145.95-13.91L145.95-13.91Q146.25-13.20 146.25-12.38L146.25-12.38L146.25-3.73zM144.81-3.73L144.81-12.38L144.81-12.38Q144.81-12.92 144.60-13.38L144.60-13.38L144.60-13.38Q144.40-13.85 144.05-14.20L144.05-14.20L144.05-14.20Q143.71-14.54 143.24-14.75L143.24-14.75L143.24-14.75Q142.77-14.95 142.23-14.95L142.23-14.95L141.22-14.95L141.22-14.95Q140.68-14.95 140.22-14.75L140.22-14.75L140.22-14.75Q139.75-14.54 139.40-14.20L139.40-14.20L139.40-14.20Q139.04-13.85 138.84-13.38L138.84-13.38L138.84-13.38Q138.64-12.92 138.64-12.38L138.64-12.38L138.64-3.73L138.64-3.73Q138.64-3.19 138.84-2.72L138.84-2.72L138.84-2.72Q139.04-2.26 139.40-1.90L139.40-1.90L139.40-1.90Q139.75-1.55 140.22-1.35L140.22-1.35L140.22-1.35Q140.68-1.15 141.22-1.15L141.22-1.15L142.23-1.15L142.23-1.15Q142.77-1.15 143.24-1.35L143.24-1.35L143.24-1.35Q143.71-1.55 144.05-1.90L144.05-1.90L144.05-1.90Q144.40-2.26 144.60-2.72L144.60-2.72L144.60-2.72Q144.81-3.19 144.81-3.73L144.81-3.73" fill="#f4c51e" stroke="none" stroke-width="none" transform="translate(-83.69000244140625,5.744539625379772)" style="fill: rgb(244, 197, 30);"></path></g><g class="path" style="transform: matrix(1, 0, 0, 1, 0, 0); opacity: 0.05; transform-origin: 70.555px -2.30546px; animation: 1.42857s linear 1.26984s 1 normal forwards running float-btt-in-459d859f-166b-4130-a7c1-7ba5b76b712e;"><path d="M158.78-10.14L158.78-10.14L158.78-10.14Q158.78-9.32 158.47-8.60L158.47-8.60L158.47-8.60Q158.16-7.88 157.62-7.34L157.62-7.34L157.62-7.34Q157.08-6.81 156.36-6.50L156.36-6.50L156.36-6.50Q155.63-6.19 154.81-6.19L154.81-6.19L151.16-6.19L151.16 0L149.71 0L149.71-16.10L154.81-16.10L154.81-16.10Q155.63-16.10 156.36-15.80L156.36-15.80L156.36-15.80Q157.08-15.49 157.62-14.95L157.62-14.95L157.62-14.95Q158.16-14.41 158.47-13.68L158.47-13.68L158.47-13.68Q158.78-12.96 158.78-12.14L158.78-12.14L158.78-10.14zM157.33-10.14L157.33-12.14L157.33-12.14Q157.33-12.68 157.13-13.15L157.13-13.15L157.13-13.15Q156.92-13.61 156.57-13.97L156.57-13.97L156.57-13.97Q156.22-14.32 155.75-14.52L155.75-14.52L155.75-14.52Q155.28-14.72 154.74-14.72L154.74-14.72L151.16-14.72L151.16-7.57L154.74-7.57L154.74-7.57Q155.28-7.57 155.75-7.77L155.75-7.77L155.75-7.77Q156.22-7.97 156.57-8.32L156.57-8.32L156.57-8.32Q156.92-8.67 157.13-9.14L157.13-9.14L157.13-9.14Q157.33-9.60 157.33-10.14L157.33-10.14" fill="#f4c51e" stroke="none" stroke-width="none" transform="translate(-83.69000244140625,5.744539625379772)" style="fill: rgb(244, 197, 30);"></path></g><g class="path" style="transform: matrix(1, 0, 0, 1, 0, 0); opacity: 0.05; transform-origin: 80.88px -2.19546px; animation: 1.42857s linear 1.34921s 1 normal forwards running float-btt-in-459d859f-166b-4130-a7c1-7ba5b76b712e;"><path d="M168.76-3.73L168.76-3.73L168.76-3.73Q168.76-2.91 168.45-2.19L168.45-2.19L168.45-2.19Q168.14-1.47 167.60-0.93L167.60-0.93L167.60-0.93Q167.06-0.39 166.35-0.08L166.35-0.08L166.35-0.08Q165.63 0.22 164.81 0.22L164.81 0.22L164.35 0.22L164.35 0.22Q163.53 0.22 162.80-0.08L162.80-0.08L162.80-0.08Q162.08-0.39 161.54-0.93L161.54-0.93L161.54-0.93Q161-1.47 160.69-2.19L160.69-2.19L160.69-2.19Q160.38-2.91 160.38-3.73L160.38-3.73L160.38-4.37L161.83-4.60L161.83-3.73L161.83-3.73Q161.83-3.19 162.03-2.72L162.03-2.72L162.03-2.72Q162.24-2.26 162.59-1.90L162.59-1.90L162.59-1.90Q162.94-1.55 163.41-1.35L163.41-1.35L163.41-1.35Q163.88-1.15 164.41-1.15L164.41-1.15L164.74-1.15L164.74-1.15Q165.27-1.15 165.74-1.35L165.74-1.35L165.74-1.35Q166.21-1.55 166.56-1.90L166.56-1.90L166.56-1.90Q166.91-2.26 167.11-2.72L167.11-2.72L167.11-2.72Q167.31-3.19 167.31-3.73L167.31-3.73L167.31-16.10L168.76-16.10L168.76-3.73" fill="#f4c51e" stroke="none" stroke-width="none" transform="translate(-83.69000244140625,5.744539625379772)" style="fill: rgb(244, 197, 30);"></path></g></g>
</g>
</g>
<style id="float-btt-in-459d859f-166b-4130-a7c1-7ba5b76b712e" data-anikit="">@keyframes float-btt-in-459d859f-166b-4130-a7c1-7ba5b76b712e
{
  0% {
    animation-timing-function: cubic-bezier(0.2242,0.7499,0.3142,0.8148);
    transform: translate(0px,0px) rotate(0deg) scale(1,1) skewX(0deg) skewY(0deg);
    opacity: 0.05;
  }
  100% {
    transform: translate(0px,0px) rotate(0deg) scale(1,1) skewX(0deg) skewY(0deg);
    opacity: 1;
  }
}</style></svg>